<svg width="71" height="22" viewBox="0 0 71 22" fill="none" xmlns="http://www.w3.org/2000/svg">
<rect width="22.3667" height="22" rx="5.86667" fill="url(#paint0_linear_2279_38)"/>
<path d="M15.1861 5.4579L9.8607 5.416L9.80956 7.26596L14.5744 7.30936L14.743 7.47708L14.8117 12.2416L16.8297 12.2362L16.5912 6.85556L15.1861 5.4579Z" fill="white"/>
<path d="M12.2134 8.44716L6.88804 8.40526L6.8369 10.2552L11.6017 10.2986L11.7703 10.4663L11.839 15.2309L13.857 15.2255L13.6185 9.84481L12.2134 8.44716Z" fill="white"/>
<path d="M9.24076 11.4354L3.91538 11.3935L3.86424 13.2435L8.62907 13.2869L8.79768 13.4546L8.86639 18.2191L10.8844 18.2138L10.6459 12.8331L9.24076 11.4354Z" fill="white"/>
<path d="M33.8232 18.1936C32.9198 18.1936 32.0691 18.0293 31.2712 17.7008C30.4851 17.3723 29.7987 16.9205 29.212 16.3456C28.6254 15.7589 28.1619 15.0784 27.8216 14.304C27.4931 13.5179 27.3288 12.6731 27.3288 11.7696C27.3288 10.8661 27.499 10.0272 27.8392 9.2528C28.1795 8.4784 28.6488 7.80373 29.2472 7.2288C29.8574 6.64213 30.5672 6.1904 31.3768 5.8736C32.1864 5.54507 33.0547 5.3808 33.9816 5.3808C35.0494 5.3808 36.0174 5.5744 36.8856 5.9616C37.7656 6.3488 38.4931 6.88267 39.068 7.5632L37.1848 9.4464C36.7859 8.93013 36.3166 8.54293 35.7768 8.2848C35.2371 8.02667 34.627 7.8976 33.9464 7.8976C33.219 7.8976 32.5678 8.06187 31.9928 8.3904C31.4179 8.7072 30.9662 9.15893 30.6376 9.7456C30.3208 10.3205 30.1624 10.9952 30.1624 11.7696C30.1624 12.544 30.3208 13.2245 30.6376 13.8112C30.9544 14.3979 31.3886 14.8555 31.94 15.184C32.4915 15.5125 33.1251 15.6768 33.8408 15.6768C34.5683 15.6768 35.1843 15.5419 35.6888 15.272C36.2051 14.9904 36.5982 14.5915 36.868 14.0752C37.1496 13.5472 37.2904 12.9077 37.2904 12.1568L39.1208 13.3888L33.5768 13.3008V10.96H40.1064V11.3648C40.1064 12.8549 39.8366 14.1104 39.2968 15.1312C38.7688 16.1403 38.0296 16.9029 37.0792 17.4192C36.1406 17.9355 35.0552 18.1936 33.8232 18.1936ZM45.7588 18.1936C44.8318 18.1936 44.0046 18.0059 43.2772 17.6304C42.5614 17.2432 41.9982 16.7093 41.5876 16.0288C41.1769 15.3483 40.9716 14.5797 40.9716 13.7232C40.9716 12.8667 41.171 12.104 41.57 11.4352C41.9806 10.7547 42.5321 10.2208 43.2244 9.8336C43.9166 9.4464 44.6969 9.2528 45.5652 9.2528C46.41 9.2528 47.155 9.43467 47.8004 9.7984C48.4457 10.1621 48.9502 10.6667 49.314 11.312C49.6894 11.9573 49.8772 12.6965 49.8772 13.5296C49.8772 13.6821 49.8654 13.8464 49.842 14.0224C49.8302 14.1867 49.8009 14.3803 49.754 14.6032L42.3796 14.6208V12.7728L48.61 12.7552L47.4484 13.5296C47.4366 13.0368 47.3604 12.632 47.2196 12.3152C47.0788 11.9867 46.8676 11.7403 46.586 11.576C46.3161 11.4 45.9817 11.312 45.5828 11.312C45.1604 11.312 44.7908 11.4117 44.474 11.6112C44.1689 11.7989 43.9284 12.0688 43.7524 12.4208C43.5881 12.7728 43.506 13.2011 43.506 13.7056C43.506 14.2101 43.594 14.6443 43.77 15.008C43.9577 15.36 44.2158 15.6357 44.5444 15.8352C44.8846 16.0229 45.2836 16.1168 45.7412 16.1168C46.1636 16.1168 46.5449 16.0464 46.8852 15.9056C47.2254 15.7531 47.5246 15.5301 47.7828 15.2368L49.2612 16.7152C48.8388 17.208 48.3284 17.5776 47.73 17.824C47.1316 18.0704 46.4745 18.1936 45.7588 18.1936ZM54.8202 18.176C54.0106 18.176 53.289 17.9824 52.6554 17.5952C52.0335 17.208 51.5407 16.68 51.177 16.0112C50.825 15.3424 50.649 14.5797 50.649 13.7232C50.649 12.8667 50.825 12.104 51.177 11.4352C51.5407 10.7664 52.0335 10.2384 52.6554 9.8512C53.289 9.464 54.0106 9.2704 54.8202 9.2704C55.4068 9.2704 55.9348 9.38187 56.4042 9.6048C56.8852 9.82773 57.2783 10.1387 57.5834 10.5376C57.9002 10.9248 58.0762 11.3707 58.1114 11.8752V15.4832C58.0762 15.9877 57.906 16.4453 57.601 16.856C57.2959 17.2549 56.9028 17.5776 56.4218 17.824C55.9407 18.0587 55.4068 18.176 54.8202 18.176ZM55.2954 15.7472C55.6826 15.7472 56.017 15.6651 56.2986 15.5008C56.5802 15.3248 56.8031 15.0843 56.9674 14.7792C57.1316 14.4741 57.2138 14.1221 57.2138 13.7232C57.2138 13.3243 57.1316 12.9781 56.9674 12.6848C56.8148 12.3797 56.5919 12.1392 56.2986 11.9632C56.017 11.7872 55.6884 11.6992 55.313 11.6992C54.9375 11.6992 54.6031 11.7872 54.3098 11.9632C54.0282 12.1392 53.7994 12.3797 53.6234 12.6848C53.4591 12.9899 53.377 13.336 53.377 13.7232C53.377 14.1104 53.4591 14.4565 53.6234 14.7616C53.7876 15.0667 54.0164 15.3072 54.3098 15.4832C54.6031 15.6592 54.9316 15.7472 55.2954 15.7472ZM59.7482 18H57.1082V15.6944L57.513 13.6176L57.0554 11.5408V5.2224H59.7482V18ZM65.4458 18.1936C64.6596 18.1936 63.9615 18.0352 63.3514 17.7184C62.753 17.3899 62.2836 16.944 61.9434 16.3808C61.6031 15.8059 61.433 15.1488 61.433 14.4096V9.4464H64.1258V14.3744C64.1258 14.6677 64.1727 14.92 64.2666 15.1312C64.3722 15.3424 64.5247 15.5067 64.7242 15.624C64.9236 15.7413 65.1642 15.8 65.4458 15.8C65.8447 15.8 66.1615 15.6768 66.3962 15.4304C66.6308 15.1723 66.7482 14.8203 66.7482 14.3744V9.4464H69.441V14.392C69.441 15.1429 69.2708 15.8059 68.9306 16.3808C68.5903 16.944 68.121 17.3899 67.5226 17.7184C66.9242 18.0352 66.2319 18.1936 65.4458 18.1936Z" fill="black"/>
<defs>
<linearGradient id="paint0_linear_2279_38" x1="11.1833" y1="0" x2="11.1833" y2="22" gradientUnits="userSpaceOnUse">
<stop stop-color="#E34C37"/>
<stop offset="0.69123" stop-color="#EC6842"/>
<stop offset="1" stop-color="#F57E44"/>
</linearGradient>
</defs>
</svg>
