<svg width="129" height="41" viewBox="0 0 129 41" fill="none" xmlns="http://www.w3.org/2000/svg">
<rect width="40.772" height="40.1036" rx="10.6943" fill="url(#paint0_linear_2279_237)"/>
<path d="M27.6834 9.94933L17.9758 9.87294L17.8826 13.2452L26.5684 13.3243L26.8757 13.6301L27.001 22.3153L30.6795 22.3055L30.2447 12.4971L27.6834 9.94933Z" fill="white"/>
<path d="M22.2635 15.3995L12.5559 15.3231L12.4627 18.6954L21.1484 18.7745L21.4558 19.0803L21.5811 27.7655L25.2596 27.7557L24.8248 17.9473L22.2635 15.3995Z" fill="white"/>
<path d="M16.8455 20.8478L7.13793 20.7714L7.04471 24.1437L15.7305 24.2228L16.0378 24.5285L16.1631 33.2137L19.8416 33.2039L19.4069 23.3955L16.8455 20.8478Z" fill="white"/>
<path d="M61.6582 32.4047C60.0113 32.4047 58.4606 32.1052 57.0062 31.5063C55.5732 30.9075 54.3219 30.084 53.2525 29.036C52.1831 27.9665 51.3382 26.726 50.7179 25.3143C50.1191 23.8813 49.8196 22.3413 49.8196 20.6944C49.8196 19.0475 50.1298 17.5182 50.75 16.1066C51.3703 14.6949 52.2258 13.4651 53.3167 12.417C54.4289 11.3476 55.7229 10.5241 57.1987 9.94664C58.6745 9.34776 60.2573 9.04832 61.947 9.04832C63.8933 9.04832 65.6579 9.40123 67.2406 10.1071C68.8448 10.8129 70.1709 11.7861 71.2189 13.0266L67.786 16.4595C67.0588 15.5184 66.2033 14.8125 65.2194 14.342C64.2355 13.8714 63.1233 13.6362 61.8828 13.6362C60.5567 13.6362 59.3696 13.9356 58.3216 14.5345C57.2735 15.112 56.4501 15.9354 55.8512 17.0049C55.2737 18.0529 54.985 19.2828 54.985 20.6944C54.985 22.1061 55.2737 23.3466 55.8512 24.416C56.4287 25.4855 57.2201 26.3196 58.2253 26.9185C59.2306 27.5174 60.3856 27.8168 61.6903 27.8168C63.0164 27.8168 64.1393 27.5708 65.059 27.0789C66.0001 26.5656 66.7166 25.8384 67.2086 24.8973C67.7219 23.9348 67.9785 22.7691 67.9785 21.4002L71.3152 23.646L61.2091 23.4856V19.2186H73.1118V19.9565C73.1118 22.6729 72.6199 24.9614 71.636 26.8222C70.6735 28.6617 69.326 30.0519 67.5935 30.993C65.8825 31.9341 63.904 32.4047 61.6582 32.4047ZM83.4154 32.4047C81.7257 32.4047 80.2178 32.0625 78.8917 31.378C77.587 30.6722 76.5604 29.699 75.8118 28.4585C75.0632 27.2179 74.6889 25.817 74.6889 24.2556C74.6889 22.6942 75.0525 21.304 75.7797 20.0848C76.5283 18.8443 77.5336 17.8711 78.7955 17.1653C80.0574 16.4595 81.4798 16.1066 83.0625 16.1066C84.6025 16.1066 85.9607 16.4381 87.137 17.1011C88.3134 17.7642 89.2331 18.6839 89.8962 19.8603C90.5806 21.0366 90.9228 22.3841 90.9228 23.9027C90.9228 24.1808 90.9014 24.4802 90.8587 24.801C90.8373 25.1005 90.7838 25.4534 90.6983 25.8598L77.2555 25.8918V22.5231L88.6129 22.4911L86.4954 23.9027C86.474 23.0044 86.335 22.2665 86.0783 21.689C85.8216 21.0901 85.4367 20.6409 84.9233 20.3415C84.4314 20.0207 83.8218 19.8603 83.0946 19.8603C82.3246 19.8603 81.6509 20.0421 81.0734 20.4057C80.5173 20.7479 80.0788 21.2398 79.758 21.8815C79.4585 22.5231 79.3088 23.3038 79.3088 24.2235C79.3088 25.1432 79.4692 25.9346 79.7901 26.5977C80.1323 27.2393 80.6028 27.742 81.2017 28.1056C81.822 28.4478 82.5492 28.6189 83.3833 28.6189C84.1533 28.6189 84.8485 28.4906 85.4687 28.2339C86.089 27.9558 86.6344 27.5495 87.105 27.0147L89.7999 29.7097C89.0299 30.608 88.0995 31.2818 87.0087 31.7309C85.9179 32.1801 84.7201 32.4047 83.4154 32.4047ZM99.9334 32.3726C98.4576 32.3726 97.1422 32.0197 95.9872 31.3139C94.8536 30.608 93.9553 29.6455 93.2922 28.4264C92.6505 27.2072 92.3297 25.817 92.3297 24.2556C92.3297 22.6942 92.6505 21.304 93.2922 20.0848C93.9553 18.8657 94.8536 17.9032 95.9872 17.1974C97.1422 16.4916 98.4576 16.1386 99.9334 16.1386C101.003 16.1386 101.965 16.3418 102.821 16.7482C103.698 17.1546 104.414 17.7214 104.97 18.4486C105.548 19.1544 105.869 19.9672 105.933 20.8869V27.4639C105.869 28.3836 105.559 29.2178 105.002 29.9664C104.446 30.6936 103.73 31.2818 102.853 31.7309C101.976 32.1587 101.003 32.3726 99.9334 32.3726ZM100.8 27.9451C101.505 27.9451 102.115 27.7954 102.628 27.496C103.142 27.1752 103.548 26.7367 103.847 26.1806C104.147 25.6245 104.297 24.9828 104.297 24.2556C104.297 23.5284 104.147 22.8974 103.847 22.3627C103.569 21.8066 103.163 21.3682 102.628 21.0473C102.115 20.7265 101.516 20.5661 100.832 20.5661C100.147 20.5661 99.5377 20.7265 99.003 21.0473C98.4896 21.3682 98.0726 21.8066 97.7517 22.3627C97.4523 22.9188 97.3026 23.5498 97.3026 24.2556C97.3026 24.9614 97.4523 25.5924 97.7517 26.1485C98.0512 26.7046 98.4682 27.1431 99.003 27.4639C99.5377 27.7847 100.137 27.9451 100.8 27.9451ZM108.917 32.0518H104.104V27.8489L104.842 24.0631L104.008 20.2773V8.75957H108.917V32.0518ZM119.303 32.4047C117.87 32.4047 116.597 32.1159 115.485 31.5384C114.394 30.9396 113.538 30.1268 112.918 29.1001C112.298 28.0521 111.988 26.8543 111.988 25.5068V16.4595H116.896V25.4427C116.896 25.9774 116.982 26.4372 117.153 26.8222C117.346 27.2072 117.624 27.5067 117.987 27.7206C118.351 27.9345 118.789 28.0414 119.303 28.0414C120.03 28.0414 120.607 27.8168 121.035 27.3677C121.463 26.8971 121.677 26.2554 121.677 25.4427V16.4595H126.585V25.4748C126.585 26.8436 126.275 28.0521 125.655 29.1001C125.035 30.1268 124.179 30.9396 123.088 31.5384C121.998 32.1159 120.736 32.4047 119.303 32.4047Z" fill="white"/>
<defs>
<linearGradient id="paint0_linear_2279_237" x1="20.386" y1="0" x2="20.386" y2="40.1036" gradientUnits="userSpaceOnUse">
<stop stop-color="#E34C37"/>
<stop offset="0.69123" stop-color="#EC6842"/>
<stop offset="1" stop-color="#F57E44"/>
</linearGradient>
</defs>
</svg>
